<svg xmlns="http://www.w3.org/2000/svg" version="1.1" viewBox="0 0 1942 1944"><path d="M1111.613 21.29c4.04.67 8.09 1.23 12.148 1.782 8.756 1.195 17.407 2.645 26.053 4.482 4.49.947 8.973 1.731 13.514 2.4 6.384.96 12.639 2.262 18.922 3.733l3.358.78c9.021 2.128 17.933 4.58 26.84 7.14 5.142 1.47 10.233 2.822 15.49 3.83 10.224 2.035 20.116 5.48 30.044 8.616a649.14 649.14 0 0 0 7.725 2.369 222.615 222.615 0 0 1 20.875 7.423 116.537 116.537 0 0 0 11.543 4.03c12.628 3.73 24.941 8.785 37.047 13.941 3.129 1.31 6.29 2.523 9.453 3.746 16.01 6.304 31.606 13.87 46.91 21.72a172.358 172.358 0 0 0 7.781 3.616c4.974 2.188 9.761 4.68 14.559 7.227l5.54 2.926 2.809 1.487a1095.92 1095.92 0 0 0 8.05 4.192c15.022 7.781 15.022 7.781 20.644 11.918 1.91 1.24 3.789 2.219 5.832 3.215 4.198 2.062 8.121 4.439 12.063 6.95l2.106 1.329c2.03 1.282 4.056 2.57 6.081 3.858l3.094 1.96c3.598 2.286 7.19 4.58 10.777 6.884 4.977 3.187 9.963 6.286 15.129 9.156v2l2.219.809c2.745 1.176 4.868 2.506 7.281 4.254a613.15 613.15 0 0 0 11.625 8.125c10.293 7.082 20.228 14.68 30.035 22.417 1.754 1.33 3.545 2.528 5.402 3.708L1565 215v2l1.738.8c2.384 1.265 4.34 2.708 6.45 4.387l2.363 1.872L1578 226c2.35 1.81 4.701 3.617 7.055 5.422C1587 233 1587 233 1588.457 234.46c1.989 1.983 4.157 3.667 6.355 5.414 5.907 4.794 11.44 9.933 16.985 15.137a220.095 220.095 0 0 0 7.14 6.425c9.113 7.875 17.84 16.233 26.282 24.817 1.851 1.879 1.851 1.879 4.406 3.808 2.149 1.753 3.737 3.455 5.523 5.56 3.757 4.335 7.759 8.363 11.852 12.378 4.676 4.586 9.175 9.237 13.45 14.2 1.933 2.244 3.927 4.427 5.925 6.613 3.091 3.42 6.05 6.907 8.938 10.5 4.022 4.998 8.319 9.676 12.79 14.272 2.63 2.764 4.136 4.686 4.897 8.415l3 1a128.82 128.82 0 0 1 5.25 6.5l1.477 1.92c.977 1.27 1.951 2.543 2.923 3.818 1.758 2.295 3.555 4.558 5.35 6.825 1.716 2.2 3.202 4.279 4.625 6.687 1.387 2.477 1.387 2.477 4.063 4.875C1742 396 1742 396 1742 399h2c1.516 1.906 1.516 1.906 3.25 4.5a233.67 233.67 0 0 0 8.39 11.613c1.36 1.887 1.36 1.887 2.797 4.297 1.63 2.702 3.426 5.186 5.313 7.715 3.309 4.512 6.367 9.113 9.332 13.855 2.267 3.57 4.62 7.075 6.98 10.582A334.4 334.4 0 0 1 1791 469a2763.19 2763.19 0 0 0 2.75 4.563 1890.478 1890.478 0 0 1 17.625 30l1.836 3.19c1.66 3.012 3.207 6.053 4.73 9.133 1.872 3.739 3.85 7.421 5.809 11.114a1013.874 1013.874 0 0 1 12.269 24.03 768.548 768.548 0 0 0 3.079 6.099c3.498 6.884 6.816 13.76 9.71 20.926 1.249 3.086 2.558 6.14 3.88 9.195 8.328 19.41 16.25 38.873 23.201 58.818 1.293 3.692 2.652 7.326 4.174 10.932 2.114 5.129 3.602 10.427 5.1 15.762.986 3.487 2.05 6.883 3.364 10.261 1.272 3.296 2.174 6.578 2.986 10.012.795 3.205 1.843 6.325 2.862 9.465 1.967 6.162 3.654 12.348 5.173 18.634 1.06 4.368 2.244 8.68 3.514 12.991 1.652 5.688 2.966 11.387 4.157 17.188.7 3.302 1.465 6.577 2.261 9.857a304.266 304.266 0 0 1 4.375 21.254 367.252 367.252 0 0 0 2.625 13.766c1.963 9.43 3.44 18.849 4.668 28.4.632 4.877 1.342 9.74 2.079 14.601 2.582 17.141 4.571 34.131 5.567 51.452.21 3.419.462 6.832.73 10.248l.272 3.486c.167 2.113.336 4.227.507 6.34 1.49 19.397 1.903 38.835 1.884 58.283v3.25a938.13 938.13 0 0 1-2.029 60.305c-.161 2.494-.315 4.988-.467 7.482-1.357 22.073-3.607 43.841-7.03 65.689-.683 4.38-1.32 8.768-1.954 13.157-1.862 12.83-3.783 25.582-6.809 38.199-.99 4.172-1.698 8.377-2.398 12.605-1.116 6.676-2.712 13.118-4.535 19.641-.964 3.667-1.707 7.321-2.402 11.047-1.209 6.306-2.865 12.364-4.727 18.5-1.22 4.021-2.352 8.037-3.336 12.125-2.977 12.17-6.77 24.014-10.975 35.81-2.068 5.816-3.924 11.658-5.693 17.573a58.007 58.007 0 0 1-2.395 6.304c-1.16 2.677-2.013 5.149-2.812 7.938-2.878 9.85-6.95 19.217-11.11 28.577-1.628 3.686-3.132 7.364-4.453 11.173-2.554 7.272-5.827 14.235-8.998 21.253a759.959 759.959 0 0 0-3.08 6.97 514.314 514.314 0 0 1-13.079 27.62c-1.322 2.604-2.611 5.225-3.905 7.844-3.197 6.395-6.57 12.691-9.955 18.988a1771.149 1771.149 0 0 0-3.158 5.923c-3.2 6.023-6.405 12.041-9.746 17.988a332.991 332.991 0 0 0-2.344 4.266c-2.548 4.692-5.327 9.115-8.332 13.527-1.422 2.18-2.673 4.39-3.902 6.684-2.262 4.17-4.904 7.953-7.66 11.808-4.095 5.927-7.77 12.145-11.434 18.344-3.66 6.006-7.837 11.664-12.219 17.16-2.6 3.29-4.576 6.41-6.25 10.25h-2l-.727 2.129c-1.487 3.353-3.403 5.91-5.648 8.809-2.383 3.088-4.702 6.147-6.79 9.44L1738 1550h-2l-.938 2.375C1734 1555 1734 1555 1733 1557h-2l-.8 1.738c-1.265 2.384-2.708 4.34-4.388 6.45-1.944 2.449-3.877 4.899-5.757 7.398l-1.868 2.476-1.707 2.286L1715 1579h-2l-.652 2.117c-1.697 3.629-4.153 6.172-6.91 9.008-3.77 3.971-7.403 7.96-10.813 12.25-4.283 5.338-8.908 10.3-13.602 15.275-3.01 3.191-5.982 6.392-8.835 9.725-3.825 4.444-8.012 8.515-12.188 12.625a3145.63 3145.63 0 0 0-9.478 9.504c-2.33 2.343-4.663 4.684-6.995 7.024a3502.044 3502.044 0 0 0-3.662 3.683c-12.327 12.41-12.327 12.41-18.303 17.444-1.617 1.346-1.617 1.346-3.145 3.022C1617 1682 1617 1682 1615 1682v2c-1.532 1.372-3.13 2.672-4.75 3.938a208.848 208.848 0 0 0-12.313 10.624C1583.47 1712 1583.47 1712 1580 1712v2a138.257 138.257 0 0 1-6.438 5.188l-1.94 1.496c-1.283.99-2.57 1.978-3.857 2.963a765.938 765.938 0 0 0-6.64 5.166 652.434 652.434 0 0 1-9.906 7.53 1542.2 1542.2 0 0 0-5 3.75c-8.617 6.485-17.229 12.948-26.219 18.907l-3.14 2.14-3.11 2.11-3.14 2.14C1508 1767 1508 1767 1506 1767v2c-1.766 1.227-1.766 1.227-4.25 2.625a192.456 192.456 0 0 0-11.375 7.125c-9.492 6.38-19.133 12.618-29.2 18.059-2.61 1.43-5.171 2.933-7.737 4.441-4.874 2.852-9.771 5.66-14.688 8.438l-1.967 1.116a245.121 245.121 0 0 1-11.716 6.162c-3.723 1.862-7.39 3.833-11.067 5.784a928.076 928.076 0 0 1-22.094 11.309 583.081 583.081 0 0 0-8 4.039c-7.223 3.697-14.402 7.012-22.027 9.828-5.127 1.913-10.06 4.214-15.004 6.55-5.403 2.54-10.692 4.914-16.39 6.692-3.255 1.09-6.429 2.362-9.61 3.645l-1.94.78a1504.973 1504.973 0 0 0-9.779 3.989c-6.97 2.853-13.945 5.357-21.176 7.488-2.734.853-5.337 1.832-7.98 2.93-9.08 3.749-18.635 6.2-28.074 8.867-3.755 1.072-7.489 2.21-11.224 3.349-7.64 2.325-15.279 4.51-23.043 6.383-4.28 1.037-8.5 2.21-12.722 3.464-5.956 1.731-11.924 2.995-18.015 4.152-4.193.84-8.332 1.83-12.485 2.848-6.126 1.483-12.18 2.513-18.437 3.316-5.075.725-10.057 1.9-15.063 2.996-12.627 2.714-25.312 4.52-38.121 6.137-3.785.484-7.564 1-11.343 1.52-34.582 4.622-69.603 6.393-104.473 6.968l-3.414.066c-16.137.281-32.217-.243-48.336-.941l-2.76-.119c-5.722-.25-11.442-.533-17.161-.834-2.34-.12-4.68-.237-7.02-.348-20.572-.992-40.839-3.001-61.235-5.842-2.868-.395-5.738-.775-8.608-1.155-15.365-2.041-30.574-4.43-45.715-7.8A132.87 132.87 0 0 0 781.25 1911c-6.372-.892-12.52-2.506-18.74-4.113a230.413 230.413 0 0 0-15.197-3.387c-6.101-1.169-11.957-2.782-17.89-4.59-4.942-1.5-9.903-2.82-14.923-4.035-4.87-1.18-9.624-2.498-14.346-4.18-2.118-.683-4.197-1.165-6.377-1.61-4.542-.986-8.884-2.327-13.277-3.835l-2.328-.786c-6.13-2.08-12.23-4.241-18.325-6.422-3.714-1.32-7.427-2.54-11.222-3.604-4.482-1.288-8.552-3.191-12.762-5.18-2.975-1.307-5.955-2.332-9.05-3.32a70.125 70.125 0 0 1-11.887-5.004c-2.104-1.02-4.197-1.732-6.426-2.434-2.954-.933-5.632-1.999-8.375-3.438-3.916-2.047-7.945-3.509-12.121-4.937-8.638-3.235-16.894-7.43-25.192-11.438l-1.82-.878c-37.966-18.328-37.966-18.328-52.758-27.457-3.35-2.027-6.801-3.858-10.246-5.72-28.816-15.744-28.816-15.744-40.12-24.234-2.122-1.588-4.385-2.814-6.692-4.109-7.447-4.412-14.515-9.487-21.574-14.488-4.045-2.8-8.188-5.447-12.329-8.102L415 1752v-2l-2-.625c-3.305-1.515-5.836-3.39-8.7-5.605-2.542-1.956-5.134-3.833-7.738-5.707-7.691-5.584-15.113-11.477-22.496-17.461-1.97-1.635-1.97-1.635-4.066-2.602v-2l-1.781-.832c-2.138-1.125-3.851-2.336-5.723-3.855l-1.978-1.604-2.08-1.709-2.155-1.76c-5.945-4.892-11.632-10.012-17.283-15.24-3.499-3.126-7.007-6.215-10.688-9.125-3.545-2.874-6.628-6.174-9.812-9.438-2.466-2.494-2.466-2.494-5.313-4.624L311 1666v-2l-1.805-.821c-2.165-1.163-3.58-2.31-5.311-4.036l-1.759-1.74-1.86-1.872-1.933-1.927a1574.075 1574.075 0 0 1-4.024-4.035 1535.853 1535.853 0 0 0-6.195-6.182 5535.058 5535.058 0 0 1-3.91-3.918l-1.884-1.872C278 1633.23 278 1633.23 278 1631l-1.75-.688c-2.84-1.656-4.265-3.707-6.25-6.312a181.008 181.008 0 0 0-4-4c-4.094-3.977-7.91-8.168-11.707-12.43a417.698 417.698 0 0 0-4.43-4.89l-1.925-2.118-1.723-1.87C245 1597 245 1597 245 1594l-1.75-.707c-2.798-1.608-4.25-3.447-6.25-5.98l-2.34-2.946-1.273-1.618a501.854 501.854 0 0 0-4.64-5.741l-3.31-4.07-1.626-1.986C220 1566.227 220 1566.227 220 1564l-3-1c-1.832-2.223-1.832-2.223-3.813-5.063-2.962-4.205-5.988-8.326-9.156-12.378C203 1544 203 1544 203 1542h-2c-3-4.385-3-4.385-3-7h-2c-1.262-1.617-1.262-1.617-2.688-3.875a309.966 309.966 0 0 0-6.875-10.25l-1.769-2.52a806.573 806.573 0 0 0-4.418-6.168c-1.27-1.797-2.51-3.62-3.64-5.507-1.787-2.975-3.684-5.857-5.61-8.743l-2.063-3.097a133.286 133.286 0 0 0-3.574-5.016c-1.605-2.147-2.887-4.435-4.199-6.77-3.003-5.3-6.018-10.602-9.664-15.492-2.66-3.63-4.722-7.519-6.84-11.484-1.794-3.327-3.654-6.612-5.535-9.89l-1.014-1.77c-1.748-3.05-3.502-6.096-5.26-9.14l-1.066-1.855c-.974-1.691-1.95-3.381-2.926-5.071-1.69-3.048-3.262-6.122-4.805-9.245-1.87-3.737-3.846-7.417-5.804-11.107-12.563-23.809-12.563-23.809-16.402-33.863-1.059-2.668-2.331-5.183-3.641-7.735-1.666-3.316-3.252-6.668-4.832-10.027l-.913-1.92C90.7 1350.695 89.29 1346.94 88 1343a201.48 201.48 0 0 0-2.375-5.188c-2.04-4.428-3.796-8.87-5.418-13.464-1.231-3.415-2.526-6.8-3.832-10.187-7.04-18.286-14.093-36.655-19.34-55.548a179.761 179.761 0 0 0-2.5-8.015c-4.556-13.51-8.053-27.373-11.626-41.169a2834.36 2834.36 0 0 0-1.179-4.536c-2.3-8.84-4.355-17.674-6.089-26.642-.763-3.87-1.68-7.674-2.641-11.501-1.645-6.763-2.837-13.53-3.858-20.413a273.09 273.09 0 0 0-2.572-14.467c-2.715-13.339-4.281-26.796-5.811-40.31a937.826 937.826 0 0 0-1.83-14.88c-9.488-73.99-7.903-152.246 1.734-226.096.334-2.558.663-5.117.991-7.677 2.016-15.62 4.13-31.181 7.448-46.587.964-4.5 1.686-9.025 2.398-13.57 1.019-6.41 2.376-12.65 4.022-18.927 1.142-4.377 2.08-8.753 2.916-13.198 1.237-6.396 2.87-12.612 4.66-18.874a348.182 348.182 0 0 0 3.777-14.438C49.45 706.74 52.755 696.38 56 686l.888-2.856c18.953-60.842 18.953-60.842 31.124-84.082 1.796-3.749 3.168-7.671 4.636-11.558a274.375 274.375 0 0 1 11.045-24.883c1.684-3.377 3.29-6.79 4.896-10.205A523.666 523.666 0 0 1 123 524l3.438-6.438c3.728-6.914 7.574-13.76 11.448-20.595 1.064-1.878 2.124-3.759 3.184-5.639a552.506 552.506 0 0 1 12.04-20.262c2.301-3.733 4.494-7.524 6.663-11.336L161 458h2l.691-2.527c1.562-4.145 3.731-7.417 6.246-11.036.886-1.292 1.77-2.585 2.653-3.878l1.272-1.857a102.47 102.47 0 0 0 2.72-4.343c1.584-2.635 3.341-5.073 5.168-7.546a474.048 474.048 0 0 0 7.688-10.75c3.25-4.668 6.647-9.213 10.082-13.747a385.95 385.95 0 0 0 5.43-7.414l1.504-2.089c.977-1.36 1.95-2.722 2.916-4.09 1.162-1.61 2.39-3.172 3.63-4.723h2l.352-1.82c.861-2.897 2.656-4.646 4.644-6.864 2.594-2.998 5.01-6.122 7.441-9.253 3.58-4.595 7.215-9.093 11.125-13.415 1.524-1.69 1.524-1.69 3-3.859.475-.59.95-1.18 1.438-1.789h2l.688-2.188c1.585-3.398 3.573-5.264 6.312-7.812 2.822-2.68 5.29-5.309 7.5-8.5 2.217-3.195 4.676-5.81 7.5-8.5 1.17-1.164 2.336-2.33 3.5-3.5 1.968-1.968 3.938-3.932 5.918-5.887 2.547-2.577 4.973-5.23 7.394-7.925 6.57-7.246 13.52-14.11 20.472-20.986a670.708 670.708 0 0 0 4.38-4.393c2.38-2.353 4.833-4.588 7.336-6.809 2.673-2.388 5.277-4.777 7.813-7.313 2.274-2.274 4.588-4.29 7.187-6.187h2l.75-1.813c1.43-2.503 2.82-3.668 5.25-5.187h2l.875-1.875C343 246 343 246 345 244h3l.75-1.813c1.43-2.503 2.82-3.668 5.25-5.187h2l1-3a140.084 140.084 0 0 1 6.75-5.438l3.734-2.87 1.815-1.379c1.537-1.186 3.035-2.42 4.53-3.66C376 219 376 219 378 219l1-3c2.082-1.727 2.082-1.727 4.813-3.625A469.521 469.521 0 0 0 396 203.5l6-4.5 3.133-2.348 2.992-2.214 2.695-2.004C413 191 413 191 415 191v-2a127.948 127.948 0 0 1 6.688-4.563c1.387-.903 2.774-1.808 4.16-2.714l2.121-1.383c2.927-1.931 5.788-3.947 8.656-5.965 5.304-3.692 10.727-7.12 16.25-10.473 5.73-3.488 11.364-7.129 17.008-10.754 4.975-3.185 9.958-6.27 15.117-9.148l3.207-1.836a827.434 827.434 0 0 1 7.695-4.348c8.339-4.61 8.339-4.61 16.473-9.566 4.359-2.786 8.978-4.988 13.625-7.25a2262.37 2262.37 0 0 0 6.438-3.188l1.765-.876a414.33 414.33 0 0 0 10.285-5.327c9.262-4.958 18.568-9.548 28.207-13.726 5.352-2.32 10.612-4.828 15.875-7.34 3.027-1.362 6.074-2.55 9.189-3.692 4.57-1.735 9.051-3.697 13.553-5.601 9.611-4.03 19.27-7.809 29.083-11.315 2.965-1.064 5.924-2.144 8.882-3.224C659.782 62.885 670.252 59.09 681 56c1.993-.58 3.985-1.163 5.976-1.746 1.43-.419 2.86-.836 4.292-1.252a459.62 459.62 0 0 0 11.689-3.584l2.517-.81c1.587-.512 3.172-1.03 4.755-1.553 4.708-1.522 9.37-2.606 14.229-3.525 4.316-.9 8.509-2.202 12.73-3.468 7.36-2.155 14.629-3.96 22.171-5.355 3.914-.76 7.772-1.692 11.641-2.645 7.82-1.9 15.7-3.297 23.633-4.63 5.299-.891 10.552-1.863 15.804-2.994 7.433-1.53 14.917-2.415 22.448-3.311 5.44-.652 10.855-1.357 16.26-2.26 7-1.154 13.975-2.168 21.039-2.855l2.61-.256c78.654-7.514 160.79-7.525 238.82 5.533Z" fill="#C8F21C"/><path d="m1023.444 265.839 3.25-.029 3.505-.013 3.67-.021c3.94-.018 7.879-.024 11.818-.026l2.027-.002c21.24-.013 42.198.504 63.286 3.252l3.808.486c10.95 1.432 21.725 2.98 32.401 5.849 2.945.702 5.849 1.117 8.853 1.477 6.608.933 12.744 2.866 19.052 4.98 3.716 1.24 7.356 2.35 11.198 3.126 5.839 1.233 11.35 3.334 16.938 5.394l3.365 1.23c2.175.798 4.35 1.598 6.522 2.4 2.294.848 4.59 1.685 6.89 2.515 6.728 2.486 13.068 5.492 19.45 8.762 5.437 2.748 10.975 5.265 16.523 7.781v2l1.55.262c17.867 5.385 34.717 20.588 48.45 32.738l2.602 2.266c10.354 9.138 19.967 18.777 28.398 29.734l1.324 1.699c13.449 17.333 22.353 36.208 28.14 57.376a252.438 252.438 0 0 0 1.65 5.597c2.172 8.155 1.472 14.772-2.708 22.11-4.7 7.415-10.345 11.751-18.957 13.835-8.782 1.373-15.856-.08-23.426-4.867-7.021-5.444-10.818-12.61-12.398-21.25-3.5-18.794-14.529-34.162-26.625-48.5l-2.563-3.25c-3.204-3.616-6.746-6.643-10.437-9.75l-2.656-2.316c-10.858-9.326-22.647-16.907-35.13-23.872-2.871-1.619-5.668-3.317-8.464-5.062-4.723-2.855-9.59-4.831-14.75-6.75a913.21 913.21 0 0 1-4.5-1.813A5241.41 5241.41 0 0 0 1200 351l-1.906-.762c-16.323-6.513-32.451-12.164-49.68-15.718a278.84 278.84 0 0 1-7.594-1.77c-12.467-3.026-24.839-4.988-37.59-6.368a230.61 230.61 0 0 1-6.57-.876c-8.874-1.309-17.507-1.8-26.492-1.772l-4.111-.005c-2.848-.003-5.696 0-8.544.01-3.593.012-7.186.005-10.78-.007-14.686-.04-29.175.103-43.733 2.268-1.409.191-2.818.38-4.228.567-6.476.81-6.476.81-12.772 2.433-1.624.079-3.25.138-4.875.187-7.092.52-13.619 2.491-20.386 4.554-4.292 1.303-8.51 2.454-12.923 3.27-4.385.832-8.141 2.125-12.254 3.864-4.235 1.767-8.461 3.47-12.812 4.937-15.005 5.433-28.72 13.04-41.75 22.188l-1.756 1.221c-14.07 9.91-26.238 22.094-35.244 36.779l-1.065 1.698c-12.952 20.773-16.88 42.903-12.1 66.849 1.754 7.431 5.306 13.924 9.165 20.453l1.072 1.843C865.022 537.53 909.79 562.778 951 583c1.348.677 2.696 1.355 4.043 2.035 6.742 3.403 13.49 6.746 20.39 9.82 1.75.78 3.491 1.575 5.227 2.383 5.668 2.634 11.389 4.977 17.235 7.184 4.397 1.674 8.758 3.435 13.124 5.19 15.148 6.093 30.312 11.882 45.793 17.075l3.436 1.155c9.08 3.015 18.24 5.525 27.505 7.894 7.09 1.82 14.055 3.822 20.997 6.139 5.928 1.97 11.887 3.55 17.988 4.887l2.07.454c3.414.744 6.831 1.465 10.255 2.16 11.487 2.434 21.21 5.47 27.937 15.624 3.982 7.007 5.19 14.022 4 22-2.316 7.481-6.618 12.593-13 17l-1.883 1.316c-7.87 4.429-19.218 3.745-27.908 2.182-6.578-1.02-13.312-.74-19.959-.748l-2.42-.005c-16.807-.002-33.453 1.017-49.87 4.849-2.575.534-5.084.648-7.71.718-8.742.58-17.05 2.869-25.514 5.007-2.62.652-5.245 1.271-7.877 1.876-26.699 6.144-52.73 14.31-78.646 23.134-1.536.523-3.072 1.045-4.608 1.565-8.155 2.769-16.192 5.654-24.116 9.043-2.986 1.275-6.01 2.429-9.052 3.563-4.927 1.875-9.7 3.959-14.479 6.183-2.963 1.32-5.95 2.49-8.985 3.633-6.738 2.573-13.394 5.311-20.036 8.121l-3.275 1.37a291.911 291.911 0 0 0-18.744 8.718c-4.682 2.367-9.428 4.6-14.168 6.85-9.305 4.438-18.568 8.938-27.75 13.625-1 .51-2.002 1.019-3.033 1.543-17.958 9.132-17.958 9.132-35.416 19.173a124.271 124.271 0 0 1-10.227 5.6c-6.169 3.041-12.046 6.535-17.949 10.059l-1.755 1.044C710.292 849.752 698.117 857.323 686 865l-2.777 1.755A885.965 885.965 0 0 0 665 878.625l-2.714 1.813C649.373 889.079 636.492 897.758 624 907l-4.395 3.21c-9.104 6.661-18.099 13.426-26.922 20.455-2.349 1.863-4.712 3.708-7.074 5.555a761.293 761.293 0 0 0-28.424 23.347 345.932 345.932 0 0 1-10.498 8.683c-7.22 5.863-13.86 12.358-20.59 18.767a498.748 498.748 0 0 1-5.679 5.284c-8.169 7.497-16.07 15.244-23.918 23.074l-1.573 1.565c-5.328 5.307-10.576 10.64-15.469 16.357-2.05 2.395-4.194 4.7-6.333 7.015-4.208 4.612-8.196 9.359-12.117 14.215a198.518 198.518 0 0 1-4.883 5.785c-4.932 5.71-9.493 11.735-14.125 17.688l-1.315 1.683c-14.076 18.02-26.543 36.972-38.623 56.38l-1.573 2.52c-6.469 10.463-11.983 21.29-17.186 32.424-.994 2.125-1.997 4.244-3 6.364-2.897 6.156-5.734 12.253-7.731 18.773-.884 2.869-2.022 5.632-3.135 8.418-1.574 4.058-2.969 7.991-3.914 12.235-.712 2.996-1.595 5.935-2.46 8.89-3.453 12.072-5.878 24.157-7.666 36.573a451.06 451.06 0 0 1-.923 6.052c-1.37 9.161-1.786 18.072-1.735 27.322.011 2.298 0 4.596-.012 6.895-.017 14.97 1.972 29.212 5.21 43.846l.764 3.574c1.477 6.793 3.212 13.423 5.299 20.051.406 1.374.81 2.75 1.21 4.125 2.045 6.861 4.22 13.275 7.618 19.61 1.169 2.258 2.087 4.512 2.984 6.89 12.98 33.205 36.936 65.555 65.188 87.375l2.062 1.621A214.996 214.996 0 0 0 449 1494l2.887 2.082c12.677 8.977 26.149 16.173 40.113 22.918l2.414 1.18c9.75 4.555 20.372 8.55 31 10.328 3.412.65 6.74 1.573 10.086 2.492 14.11 3.828 27.492 5.152 42.11 5.203l3.89.017c2.71.01 5.419.017 8.128.02 2.727.005 5.453.018 8.18.041 21.323.176 41.629-1.445 62.536-5.61 3.55-.652 7.069-1.087 10.656-1.484 9.874-1.238 19.424-3.902 29.035-6.419 3.049-.79 6.103-1.549 9.16-2.303a327.683 327.683 0 0 0 14.492-3.965l2.065-.605a359.154 359.154 0 0 0 12.74-4.056c2.859-.956 5.724-1.888 8.59-2.82 12.87-4.206 25.561-8.624 38.06-13.832 2.748-1.141 5.5-2.268 8.255-3.391 2.599-1.06 5.196-2.125 7.793-3.19 1.879-.77 3.758-1.539 5.638-2.306 6.16-2.544 12.197-5.196 18.118-8.258 2.953-1.498 6.008-2.745 9.054-4.042a324.02 324.02 0 0 0 5.812-2.938c1.815-.881 3.664-1.692 5.52-2.484 11.675-5.023 22.84-11.219 34.043-17.203l1.816-.967c6.608-3.524 13.133-7.13 19.53-11.027a283.376 283.376 0 0 1 6.568-3.846c25.64-14.607 50.527-30.63 74.711-47.535l2.032-1.416c23.709-16.537 46.966-33.797 69.272-52.188 2.452-2.018 4.92-4.018 7.383-6.021 4.533-3.71 9.007-7.486 13.467-11.283a503.69 503.69 0 0 1 10.658-8.78c4.026-3.272 7.706-6.72 11.32-10.437 1.75-1.757 3.55-3.385 5.43-5 13.013-11.227 25.145-23.422 37.275-35.582 2.683-2.688 5.372-5.372 8.061-8.055 1.733-1.732 3.464-3.466 5.196-5.199l2.399-2.393c4.143-4.16 8.134-8.395 11.954-12.855 2.71-3.126 5.582-6.1 8.428-9.104 4.816-5.12 9.41-10.333 13.797-15.832 2.263-2.776 4.602-5.463 6.971-8.148 6.747-7.656 12.921-15.615 18.963-23.833 1.708-2.296 3.464-4.551 5.228-6.804 5.652-7.223 10.824-14.73 15.969-22.319 1.512-2.212 3.072-4.387 4.634-6.564 8.588-12.264 16.224-25.102 23.387-38.238a197.48 197.48 0 0 1 5.363-9.199c3.677-6.041 6.74-12.389 9.813-18.75l1.719-3.527c7.782-16.29 14.078-32.795 18.692-50.258a302.42 302.42 0 0 1 1.519-5.465c8.739-31.714 8.283-67.847-7.5-97.251-6.158-10.7-15.467-19.36-25.43-26.499l-1.836-1.348c-14.017-9.518-30.42-14.074-47.164-14.652l-3.922-.16c-8.274-.232-15.66.615-23.758 2.441-2.675.58-5.163.956-7.883 1.156-5.066.473-9.792 2.014-14.652 3.47-3.782 1.092-7.577 2.008-11.41 2.905-13.246 3.215-25.997 8.08-38.563 13.313l-2.282.946c-4.654 1.983-9.023 4.278-13.42 6.777-2.303 1.257-4.673 2.27-7.1 3.267-4.889 2.153-9.588 4.728-14.323 7.197l-3.263 1.686c-10.486 5.456-20.458 11.596-30.424 17.94l-2.79 1.763A415.708 415.708 0 0 0 1027 948l-2.309 1.64c-8.748 6.234-17.386 12.54-25.691 19.36a4307.614 4307.614 0 0 1-4.813 3.812c-11.555 9.245-22.684 19.003-33.664 28.918-3.119 2.806-6.265 5.58-9.418 8.348-4.353 3.974-8.343 8.24-12.293 12.61a260.967 260.967 0 0 1-10.937 11.374c-4.185 4.14-7.925 8.498-11.598 13.094-2.36 2.947-4.78 5.833-7.215 8.719-20.82 25.011-38.53 52.023-53.062 81.125l-1.042 2.06c-4.282 8.511-7.759 17.316-11.208 26.19l-1.288 3.302c-2.258 5.909-4.207 11.789-5.796 17.911a160.43 160.43 0 0 1-2.018 6.978l-.64 2.08a488.976 488.976 0 0 1-1.29 4.094c-9.585 31.45-1.577 69.955 13.22 98.447 3.818 7.078 7.96 13.702 13.062 19.938l1.384 1.699c5.25 6.405 10.49 12.494 16.874 17.805 6.372 5.472 10.94 11.955 12.16 20.387.357 7.532-1.376 12.81-5.418 19.109l-2.063 3.25c-4.907 5.318-11.681 8.278-18.738 9.3-12.066.425-18.034-3.36-26.574-11.175a499.99 499.99 0 0 1-5.017-4.814 472.646 472.646 0 0 0-4.534-4.33c-13.42-12.964-24.29-28.801-33.027-45.262a119.307 119.307 0 0 0-2.344-4.188c-2.542-4.366-4.423-8.533-5.894-13.363-.914-2.73-2.068-5.291-3.247-7.918-2.863-6.764-4.439-13.602-5.939-20.773a154.111 154.111 0 0 0-1.623-6.378c-2.983-11.104-3.515-21.456-3.313-32.912.012-1.666.022-3.332.03-4.998.205-28.15.205-28.15 3.158-38.564 1.301-4.73 2.438-9.421 3.312-14.25 1.494-7.176 3.857-14.017 6.25-20.938l1.163-3.362c1.962-5.565 4.034-11.007 6.539-16.35.944-2.164 1.663-4.346 2.361-6.6 1.11-3.474 2.588-6.413 4.488-9.543 1.095-1.983 1.855-3.956 2.637-6.082 9.142-23.439 23.94-45.304 38.375-65.75l2.547-3.66c10.042-14.354 20.92-28.045 32.545-41.144a287.816 287.816 0 0 0 4.3-5.081c8.228-9.886 17.185-18.965 26.31-28.022 2.563-2.545 5.119-5.099 7.673-7.654l4.953-4.935 2.28-2.276c4.643-4.603 9.43-8.973 14.392-13.228 1.168-1.022 2.335-2.045 3.5-3.07 26.481-23.153 54.501-44.636 84.655-62.808a578.387 578.387 0 0 0 6.013-3.724c10.35-6.406 20.956-12.2 31.77-17.773l1.974-1.02c11.795-6.076 23.692-11.844 36.088-16.605l2.799-1.086c11.621-4.485 23.149-8.74 35.201-11.914 2.313-.686 4.626-1.373 6.937-2.063 5.84-1.664 11.685-2.945 17.649-4.082 6.696-1.276 13.36-2.724 20.027-4.142 25.492-5.363 51.604-3.796 76.457 3.708 1.617.485 3.241.943 4.867 1.395 32.504 9.116 63.652 34.203 80.468 63.425 6.097 11.019 11.757 22.455 14.595 34.759.665 2.042 1.332 4.084 2 6.125 8.213 28.958 7.234 68.092-2.347 96.69-.708 2.37-1.076 4.675-1.403 7.122-1.335 7.923-4.517 15.3-7.38 22.77-1.216 3.205-2.357 6.434-3.495 9.668A5222.37 5222.37 0 0 1 1343 1070l-1.066 3.012c-5.836 15.881-13.715 31.023-21.783 45.87-.841 1.548-1.677 3.1-2.509 4.652-3.642 6.76-7.509 13.355-11.517 19.903l-1.877 3.072c-4.262 6.946-8.629 13.776-13.248 20.491l-3.055 4.516c-6.1 9.002-12.291 17.879-18.945 26.484l-1.86 2.41a1779.644 1779.644 0 0 1-5.14 6.59l-3.438 4.437a961.692 961.692 0 0 1-9.53 12.028 700.959 700.959 0 0 0-4 5.039c-4.078 5.17-8.335 10.096-12.774 14.957-2.199 2.472-4.263 5.012-6.32 7.601-4.736 5.863-9.888 11.3-15.09 16.749l-1.98 2.076c-.577.6-1.154 1.2-1.747 1.819-1.793 1.94-3.515 3.913-5.236 5.916-4.418 5.065-9.156 9.793-13.912 14.538l-2.872 2.875c-1.995 1.996-3.99 3.99-5.988 5.983a4198.86 4198.86 0 0 0-7.608 7.61c-1.972 1.977-3.947 3.95-5.923 5.923a3972.969 3972.969 0 0 0-4.147 4.153c-4.436 4.42-8.92 8.715-13.683 12.782-3.117 2.693-6.076 5.556-9.065 8.389a259.609 259.609 0 0 1-16.011 13.918c-2.991 2.467-5.84 5.067-8.676 7.707-5.477 5.084-11.175 9.82-17 14.5-1.205.985-2.41 1.97-3.613 2.957-13.316 10.903-26.85 21.54-40.683 31.78-2.001 1.483-3.997 2.975-5.993 4.466-8.915 6.635-17.929 13.077-27.13 19.31-4.252 2.883-8.449 5.81-12.581 8.862-5.178 3.806-10.543 7.236-16 10.625a9541.282 9541.282 0 0 0-5.506 3.442c-1.344.84-2.69 1.679-4.035 2.517-3.692 2.302-7.374 4.62-11.041 6.963-10.972 7.002-22.105 13.643-33.418 20.078l-5.794 3.304a11534.3 11534.3 0 0 1-5.136 2.926 428.137 428.137 0 0 0-8.258 4.895c-8.277 4.99-16.814 9.414-25.473 13.694-5.127 2.544-10.174 5.219-15.214 7.931-5.299 2.846-10.557 5.39-16.203 7.492-2.079.76-2.079.76-4.422 2.258-2.375 1.425-4.61 2.376-7.188 3.375a94.278 94.278 0 0 0-9.937 4.5c-5.557 2.844-11.358 4.938-17.207 7.082-4.044 1.485-8.047 3.059-12.043 4.668l-1.89.761L803 1552a3793.53 3793.53 0 0 1-7.688 3.07c-1.566.63-3.129 1.271-4.687 1.922-5.735 2.372-11.53 4.234-17.477 6.008-2.756.875-5.365 1.87-8.023 3-5.291 2.192-10.752 3.586-16.29 5.008a405.006 405.006 0 0 0-10.46 2.867l-3.46.988c-2.95.85-5.89 1.73-8.83 2.617-9.174 2.737-18.203 5.164-27.697 6.495a90.138 90.138 0 0 0-11.482 2.412c-8.778 2.253-17.773 3.217-26.75 4.348-3.084.389-6.166.789-9.248 1.19-2 .258-3.998.514-5.998.77l-2.732.354c-11.742 1.47-23.413 2.118-35.244 2.19l-3.98.024c-2.772.015-5.542.025-8.313.032-2.776.009-5.55.03-8.326.062-19.127.216-37.422-1.103-56.315-4.357-1.663-.27-3.327-.538-4.991-.803-7.607-1.242-14.539-3.28-21.736-6.021-2.968-1.066-5.82-1.82-8.898-2.489-5.825-1.363-11.27-3.472-16.813-5.687l-2.621-1.044c-3.316-1.351-6.466-2.67-9.539-4.519-2.505-1.606-2.505-1.606-5.98-2.707-5.772-2.084-10.912-5.296-16.172-8.418l-3.237-1.908c-10.407-6.172-20.218-12.537-29.505-20.33a111.77 111.77 0 0 0-6.383-4.887c-13.209-9.785-25.68-22.535-36.125-35.187l-1.263-1.508C354.9 1481.31 344.956 1466.132 336 1450a783.142 783.142 0 0 0-2.055-3.52c-7.404-12.63-12.88-25.648-17.992-39.332-1.164-3.104-2.363-6.181-3.656-9.234-3.306-7.831-5.58-15.462-7.34-23.746-.647-3-1.481-5.884-2.416-8.807-1.532-5.068-2.438-10.07-3.146-15.31l-.392-2.798a1202.5 1202.5 0 0 1-1.19-8.94l-.406-3.093c-2.961-22.918-3.967-45.536-.77-68.513.442-3.294.825-6.593 1.21-9.895 1.53-12.687 3.264-25.023 7.067-37.25a69.525 69.525 0 0 0 2.086-8.812c.948-5.235 2.815-10.094 4.684-15.063a146.4 146.4 0 0 0 2.734-8.5c1.533-5.187 3.426-10.177 5.457-15.187l1.065-2.65c2.095-5.152 4.289-10.196 6.955-15.084 1.25-2.463 1.25-2.463 2.457-5.98 1.686-4.585 3.894-8.805 6.21-13.099l2.68-5.019 1.382-2.58a743.285 743.285 0 0 0 4.009-7.662c4.44-8.575 9.014-16.878 14.367-24.926 1.01-1.59 2.021-3.182 3.029-4.774 8.612-13.557 17.621-26.858 27.584-39.46a742.462 742.462 0 0 0 4.73-6.106c9.36-12.154 19.019-23.878 29.395-35.183a326.81 326.81 0 0 0 5.7-6.415c6.91-7.935 14.038-15.612 21.53-23 1.851-1.878 3.575-3.804 5.282-5.812 6.987-8.127 14.76-15.711 22.926-22.645 2.032-1.788 3.925-3.676 5.824-5.605 3.15-3.193 6.412-6.172 9.812-9.094 2.543-2.215 5.02-4.497 7.5-6.781 4.562-4.164 9.266-8.097 14.07-11.977A205.507 205.507 0 0 0 523.5 912c5.023-4.512 10.245-8.762 15.5-13 .755-.612 1.51-1.225 2.29-1.855 7.775-6.267 15.679-12.371 23.572-18.488 1.842-1.428 3.682-2.858 5.52-4.29a866.486 866.486 0 0 1 45.368-32.84 1195.4 1195.4 0 0 0 8.504-5.837c23.787-16.424 48.277-31.672 73.086-46.499 2.518-1.505 5.03-3.019 7.539-4.539l1.964-1.187c1.208-.73 2.415-1.462 3.62-2.196 9.276-5.597 18.92-10.544 28.537-15.519l6.61-3.43 3.27-1.698a3128.448 3128.448 0 0 0 15.693-8.219c4.578-2.413 9.132-4.866 13.677-7.34A136.295 136.295 0 0 1 791 739a495.91 495.91 0 0 0 5-2.5c3.942-1.995 7.934-3.768 12-5.5a386.59 386.59 0 0 0 3.812-1.938c3.827-1.946 7.754-3.502 11.75-5.062 2.846-1.167 5.543-2.538 8.273-3.948 2.213-1.075 4.443-1.987 6.735-2.88a315.069 315.069 0 0 0 10.86-4.531l2.718-1.192c1.844-.81 3.685-1.626 5.524-2.445l2.695-1.176 2.41-1.065C865 706 865 706 869 706v-2c15.907-6.095 31.972-11.715 48.164-17.004l4.855-1.593c3.182-1.045 6.368-2.077 9.556-3.103 13.503-3.84 13.503-3.84 23.987-12.488 2.095-4.42 2.256-9.037 1.438-13.812-1.108-2.325-2.374-3.968-4-6v-2l-2.555-.781c-3.685-1.304-7.101-2.938-10.57-4.719l-4.285-2.176-2.27-1.155a592.856 592.856 0 0 0-7.004-3.462c-17.345-8.489-34.447-17.684-50.483-28.475a662.848 662.848 0 0 0-4.002-2.668c-10.852-7.186-21.15-14.78-31.12-23.146a201.243 201.243 0 0 0-4.55-3.637C817.29 563.027 802.918 544.948 790 525l-2-3v-3h-2c-11.501-24.67-16.1-47.756-15-75l.076-2.188c1.78-40.114 27.863-77.725 56.341-104.39 4.448-3.995 9.188-7.626 13.97-11.21a327.928 327.928 0 0 0 4.242-3.255c13.928-10.571 30.344-20.854 46.789-26.902 2.216-.905 4.284-1.905 6.41-2.996 3.81-1.928 7.698-3.482 11.734-4.872l2.166-.75c13.944-4.77 27.918-9.444 42.506-11.734 3.075-.574 5.917-1.305 8.91-2.18 6.205-1.735 12.398-2.478 18.793-3.148 2.197-.24 4.394-.482 6.59-.727.957-.1 1.913-.202 2.899-.307 2.265-.3 4.365-.775 6.574-1.341 2.31-.198 4.623-.362 6.937-.5 4.75-.264 4.75-.264 9.436-1.008 2.747-.514 5.278-.633 8.071-.653Z" fill="#1E1E1C"/><path d="M1528.072 986.922c32.342-1.152 64.364 9.226 88.553 30.953l2.348 2.219c2.131 2.064 2.131 2.064 5.09 4.281 22.017 19.675 35.315 50.289 37.176 79.352 1.35 38.293-7.2 72.171-33.708 100.863-20.945 22.251-49.491 38.907-80.531 40.41-4.765.133-9.524.186-14.29.185-2.141.002-4.282.02-6.423.04-14.337.06-26.89-2.268-40.287-7.225l-3.09-1.121c-24.756-9.603-47.284-29.216-60.91-51.879l-2.098-3.313c-8.116-13.141-12.52-27.492-14.902-42.687l-.555-3.484c-3.968-33.32 1.636-68.124 22.368-95.204A243.617 243.617 0 0 1 1432 1034l1.325-1.566c21.93-25.596 51.976-42.364 85.738-45.184 3.003-.14 6.005-.215 9.01-.328Z" fill="#1D1D1C"/><path d="M485 946c0 3 0 3-1.784 5.145l-2.53 2.51-1.39 1.39a913.392 913.392 0 0 1-4.577 4.53 2997.01 2997.01 0 0 1-11.506 11.42c-2.841 2.808-5.673 5.627-8.506 8.444A8441.585 8441.585 0 0 1 438 996l-2-1 1.45-1.434c2.207-2.186 4.41-4.376 6.613-6.566l2.279-2.254c4.177-4.16 8.167-8.403 12.012-12.87 2.575-2.934 5.313-5.691 8.084-8.438l1.7-1.696a202.188 202.188 0 0 1 11.272-10.375c1.967-1.69 3.794-3.497 5.59-5.367Z" fill="#373D1C"/><path d="M965 996c0 3 0 3-1.443 4.803l-2.045 2.026-2.306 2.305-2.519 2.471-2.555 2.544a2896.86 2896.86 0 0 1-8.132 8.038 10244.7 10244.7 0 0 0-5.492 5.452A5676.886 5676.886 0 0 1 927 1037l-2-1 1.282-1.266c1.95-1.93 3.897-3.863 5.843-5.796l2.016-1.99c3.226-3.211 6.32-6.439 9.226-9.944L946 1014h2l.629-1.652c1.887-3.231 4.532-5.464 7.308-7.91 4.635-4.11 4.635-4.11 9.063-8.438Z" fill="#B0D41C"/></svg>